<?xml version="1.0" standalone="no"?>
<!DOCTYPE svg PUBLIC "-//W3C//DTD SVG 20010904//EN"
 "http://www.w3.org/TR/2001/REC-SVG-20010904/DTD/svg10.dtd">
<svg version="1.0" xmlns="http://www.w3.org/2000/svg"
 width="700.000000pt" height="700.000000pt" viewBox="0 0 700.000000 700.000000"
 preserveAspectRatio="xMidYMid meet">
<metadata>
Created by potrace 1.14, written by Peter Selinger 2001-2017
</metadata>
<g transform="translate(0.000000,700.000000) scale(0.100000,-0.100000)"
fill="#000000" stroke="none">
<path d="M5020 6564 c-25 -8 -57 -25 -72 -38 -23 -21 -77 -96 -113 -159 -5 -9
-46 -72 -90 -140 -43 -67 -111 -171 -150 -232 -40 -60 -102 -156 -138 -213
l-67 -102 -80 40 c-450 226 -1017 308 -1534 220 -545 -92 -1027 -343 -1401
-731 -275 -285 -456 -576 -585 -944 -30 -85 -75 -247 -85 -304 -3 -19 -8 -37
-10 -40 -4 -8 -32 -214 -39 -296 -3 -33 -6 -174 -7 -313 -2 -266 -8 -324 -56
-502 -48 -182 -116 -325 -238 -506 -186 -274 -235 -409 -241 -669 -4 -207 24
-344 106 -514 117 -241 334 -445 575 -539 170 -67 537 -142 805 -166 36 -4 92
-9 125 -12 82 -8 451 -8 555 0 357 28 633 77 940 168 117 34 302 99 367 129
24 10 45 19 48 19 17 0 307 140 425 205 214 118 508 321 675 466 122 106 162
144 255 239 111 113 131 135 196 215 248 307 427 688 504 1074 42 210 49 298
45 556 -5 259 -5 264 -46 468 -48 236 -142 497 -254 703 -38 68 -115 190 -202
314 -18 26 -95 118 -148 179 -72 80 -267 264 -326 305 l-22 15 39 60 c210 328
297 461 299 459 2 -2 6 -50 10 -107 6 -102 35 -269 57 -331 3 -8 14 -37 23
-65 39 -111 136 -286 213 -380 31 -39 141 -153 179 -186 58 -51 189 -138 269
-178 81 -41 227 -97 274 -106 14 -3 36 -7 50 -10 26 -6 51 -11 98 -20 15 -3
83 -8 152 -10 185 -7 275 22 376 122 86 84 136 213 128 330 -14 227 -50 377
-131 551 -145 312 -418 566 -739 690 -175 67 -304 89 -549 91 -104 1 -194 6
-199 12 -6 5 -7 9 -3 9 3 0 0 18 -8 40 -40 114 -145 169 -255 134z"/>
</g>
</svg>
